<?xml version="1.0" encoding="UTF-8" standalone="no"?><!DOCTYPE svg PUBLIC "-//W3C//DTD SVG 1.1//EN" "http://www.w3.org/Graphics/SVG/1.1/DTD/svg11.dtd"><svg width="100%" height="100%" viewBox="0 0 7087 7087" version="1.1" xmlns="http://www.w3.org/2000/svg" xmlns:xlink="http://www.w3.org/1999/xlink" xml:space="preserve" style="fill-rule:evenodd;clip-rule:evenodd;stroke-linejoin:round;stroke-miterlimit:2;"><g id="logos7.png"><path d="M1003.656,1651.205c115.751,-18.13 2582.583,-1397.301 2655.198,-1391.998c65.113,4.755 1534.755,807.546 1667.04,879.807c967.766,528.642 1300.945,663.357 1306.801,733.054c15.133,180.098 9.136,2845.554 8.579,3092.994c-0.492,218.475 45.882,263.464 -154.102,366.302c-147.907,76.058 -168.789,86.796 -1833.842,977.489c-451.185,241.354 -965.686,519.677 -995.113,518.567c-34.234,-1.291 -2947.772,-1549.798 -2966.461,-1584.771c-26.34,-49.291 -15.617,-2899.138 -7.39,-2985.149c85.343,-7.631 83.91,-7.996 170.424,-2.173c-1.388,230.372 -17.108,2839.362 7.17,2879.695c23.785,39.515 2347.114,1260.703 2646.343,1427.864c4.571,2.554 62.905,35.142 63.959,-15.747c7.378,-356.528 -1.982,-2750.486 -2.917,-2989.657c-0.468,-119.755 -45.112,-107.061 -658.528,-439.1c-147.64,-79.917 -1733.301,-938.227 -1851.136,-989.173c37.034,-82.224 35.89,-80.897 81.418,-158.094c27.583,16.157 2474.989,1325.615 2492.643,1331.455c71.771,23.741 746.429,-373.828 1773.607,-915.005c195.674,-103.093 881.918,-472.065 895.423,-493.684c29.466,-47.172 -284.505,-168.948 -1403.066,-787.832c-97.933,-54.185 -1167.084,-645.731 -1241.113,-647.845c-38.551,-1.101 -2531.47,1334.303 -2540.067,1341.198c-90.507,-120.867 -75.919,-127.044 -84.122,-137.025c-6.81,-8.286 -23.937,-2.885 -30.747,-11.171Z" style="fill:#69a2a0;stroke:#fff;stroke-width:4.17px;"/><path d="M3747.74,6096.183c-0.251,-846.211 -0.502,-1692.422 -0.753,-2538.632c0.181,-121.753 41.532,-104.294 152.483,-163.676c2316.009,-1239.54 2304.21,-1258.221 2514.104,-1349.247c58.039,-25.17 50.732,26.441 50.566,582.767c-0.751,2506.122 -7.749,2506.299 -8.674,2507.793c-29.031,46.889 -2059.455,1104.398 -2636.704,1421.723c-94.75,52.086 -68.286,-38.851 -71.021,-460.728Z" style="fill:#000101;stroke:#fff;stroke-width:4.17px;"/><path d="M5681.712,4585.788c-121.889,74.195 -974.662,409.22 -1009.372,497.758c-122.504,312.481 -49.881,708.854 -61.108,730.6c-26.038,50.433 -562.133,313.176 -563.742,313.139c-34.881,-0.793 -168.218,449.459 -11.679,-1666.828c31.107,-420.537 343.13,-907.518 493.973,-983.731c13.923,-7.035 437.265,-279.358 674.175,-366.907c211.561,-78.182 316.548,-56.71 334.838,-50.019c34.073,12.465 703.261,-204.839 710.714,1827.97c0.268,73.016 -19.207,79.126 -179.021,165.063c-393.431,211.56 -397.511,206.461 -405.512,202.689c-10.879,-5.129 3.548,-284.501 13.399,-460.455l0.101,-6.422l0.606,-10.577l0.051,-0.886c0.398,-4.506 2.711,-24.656 2.555,-24.654c-0.063,-4.4 -0.167,-9.325 -0.308,-14.722c2.926,-51.431 4.778,-84.589 4.778,-84.589c0,0 -1.754,-26.452 -4.47,-67.768c-5.421,-82.458 -14.675,-224.124 -21.475,-332.897c-1.462,24.241 12.723,164.9 19.644,305.008c0.037,0.754 1.817,27.477 1.854,28.23Zm-3.234,202.856l-0.314,5.468c-0.239,4.169 0.128,-11.675 0.497,-17.078l-0.183,11.61Zm0.183,-11.61l1.285,-81.305c0.631,15.953 1.124,30.165 1.435,42.075c-0.692,12.168 -1.445,25.359 -2.247,39.376c-0.03,0.336 -0.049,0.585 -0.055,0.732c-0.11,-3.569 -0.264,-3.129 -0.418,-0.879Zm1.285,-81.305c-1.2,-30.341 3.65,-71.201 1.743,-110.282c2.49,-1.516 -1.679,5.899 0.194,4.602l-1.937,105.679Zm-21.356,-469.287c-4.241,-68.577 -7.158,-119.127 -6.881,-124.262c1.926,-35.697 -131.197,-256.579 -181.263,-277.36c-40.36,-16.752 -191.034,-50.361 -252.231,2.244c-70.559,60.653 -276.772,126.015 -394.232,308.384c-96.583,149.956 -111.357,416.951 -129.033,499.006c-1.022,4.742 865.047,-414.213 963.64,-408.012Zm0,-0c0.493,7.968 1.003,16.18 1.529,24.592c0.094,0.466 0.127,0.964 0.096,1.496c0.112,-0.881 -1.456,-23.364 -1.487,-23.863c-0.595,-2.942 5.181,-1.89 -0.138,-2.224Z" style="fill:#6ca6a3;stroke:#fff;stroke-width:4.17px;stroke-linecap:round;stroke-miterlimit:1.5;"/><path d="M5695.836,4583.669c-1.626,43.992 -2.947,45.269 -5.775,48.002c-1.895,1.831 -7.507,130.892 -4.62,143.449c7.81,33.967 7.931,35.938 35.806,57.491c5.463,4.224 5.255,4.13 10.973,7.814c9.965,6.42 47.693,7.348 39.849,6.14" style="fill:#6ca6a3;"/><path d="M5684.631,4564.017c3.574,6.908 -1.171,53.908 0.39,88.592c0.03,0.659 -1.451,10.883 -0.39,18.576c0.772,5.593 -1.618,31.68 0,37.152c3.34,11.299 -2.898,-3.707 5.121,4.858c8.341,8.91 67.754,22.635 81.019,21.719c0.592,-0.041 0.015,-1.4 6.801,-2.858c-2.736,0.449 -5.247,1.837 -7.984,2.286c-4.27,0.701 -4.251,-0.751 -54.112,-1.715c0.57,0.115 11.063,2.581 14.785,2.858c1.383,0.103 0.668,-0.646 0.887,-0.857" style="fill:#6ca6a3;"/><path d="M1059.679,2129.208c117.835,50.946 1703.496,909.256 1851.136,989.173c613.416,332.039 658.06,319.344 658.528,439.1c0.935,239.171 10.295,2633.129 2.917,2989.657c-1.053,50.889 -59.387,18.301 -63.959,15.747c-299.228,-167.162 -2622.558,-1388.349 -2646.343,-1427.864c-24.277,-40.333 -8.558,-2649.323 -7.17,-2879.695c123.829,-62.006 189.85,-114.223 204.89,-126.118Z" style="fill:#010100;stroke:#fff;stroke-width:4.17px;"/><path d="M1118.524,1799.401c8.596,-6.894 2501.516,-1342.298 2540.067,-1341.198c74.029,2.114 1143.18,593.661 1241.113,647.845c1118.561,618.884 1432.532,740.66 1403.066,787.832c-13.504,21.619 -699.748,390.592 -895.423,493.684c-1027.178,541.177 -1701.836,938.745 -1773.607,915.005c-17.654,-5.84 -2465.059,-1315.298 -2492.643,-1331.455c-13.75,-85.701 -14.197,-82.817 -22.574,-171.714Z"/><clipPath id="_clip1"><path d="M1118.524,1799.401c8.596,-6.894 2501.516,-1342.298 2540.067,-1341.198c74.029,2.114 1143.18,593.661 1241.113,647.845c1118.561,618.884 1432.532,740.66 1403.066,787.832c-13.504,21.619 -699.748,390.592 -895.423,493.684c-1027.178,541.177 -1701.836,938.745 -1773.607,915.005c-17.654,-5.84 -2465.059,-1315.298 -2492.643,-1331.455c-13.75,-85.701 -14.197,-82.817 -22.574,-171.714Z"/></clipPath><g clip-path="url(#_clip1)"><path d="M5646.807,4232.192c27.824,-16.135 33.089,-22.352 56.216,0c48.41,46.788 35.017,102.441 0,271.66c-5.194,25.101 -8.402,71.126 -8.835,77.337c-6.134,2.461 -6.15,1.782 -10.55,6.035c-2.452,2.369 -25.842,3.625 -28.108,3.747" style="fill:#6ca6a3;"/><path d="M5674.745,4582.041c0.157,1.213 0.292,1.03 3.176,14.964c3.112,15.041 -0.426,49.238 0.179,111.377c0.367,37.722 -7.697,71.874 10.143,97.738c2.648,3.839 32.912,9.458 45.258,-8.441c12.52,-18.151 8.429,-23.79 19.056,-68.298c4.405,-18.449 1.514,-54.242 1.191,-59.857c-0.463,-8.061 -1.81,-7.781 -1.985,-15.732c-0.099,-4.511 -0,-4.486 -0,-56.403" style="fill:#6ca6a3;"/></g><path d="M1118.524,1799.401c8.596,-6.894 2501.516,-1342.298 2540.067,-1341.198c74.029,2.114 1143.18,593.661 1241.113,647.845c1118.561,618.884 1432.532,740.66 1403.066,787.832c-13.504,21.619 -699.748,390.592 -895.423,493.684c-1027.178,541.177 -1701.836,938.745 -1773.607,915.005c-17.654,-5.84 -2465.059,-1315.298 -2492.643,-1331.455c-13.75,-85.701 -14.197,-82.817 -22.574,-171.714Z" style="fill:none;stroke:#fff;stroke-width:4.17px;"/><path d="M1726.307,3795.622c-60.978,28.007 -31.252,45.198 -28.345,88.077c3.978,58.671 -1.219,1404.254 -1.56,1405.65c-10.697,43.755 -39.159,21.82 -527.755,-235.936c-97.205,-51.28 -68.585,-148.972 -68.918,-415.072c-0.22,-175.317 -2.737,-2185.25 -1.099,-2191.46c11.483,-43.54 38.901,-19.88 525.423,239.946c125.866,67.218 424.967,637.657 653.816,947.877c54.211,73.487 449.391,-304.834 522.177,-303.079c32.19,0.776 503.009,254.392 509.807,261.072c8.25,8.106 20.055,8.268 19.14,1196.459c-1.054,1368.263 7.798,1395.802 -34.936,1395.022c-5.556,-0.101 -525.914,-273.885 -543.898,-291.241c-50.444,-48.684 -15.511,-1449.73 -27.044,-1657.138c-6.515,-117.167 -395.281,317.702 -493.945,274.648c-48.824,-21.305 -450.036,-624.006 -502.864,-714.825Z" style="fill:#6ca6a3;stroke:#fff;stroke-width:4.17px;"/><path d="M1003.656,1651.205c6.81,8.286 23.937,2.885 30.747,11.171c8.203,9.981 -6.385,16.159 84.122,137.025c8.377,88.897 8.824,86.013 22.574,171.714c-45.528,77.196 -44.385,75.869 -81.418,158.094c-15.039,11.895 -81.061,64.112 -204.89,126.118c-86.513,-5.823 -85.081,-5.457 -170.424,2.173c-13.143,-15.395 -364.661,-197.857 -199.119,-509.922c161.948,-305.291 482.297,-117.537 518.408,-96.372Z" style="fill:#f5933e;stroke:#fff;stroke-width:4.17px;"/></g><path d="M5650.328,4236.673c-2.021,-2.154 1.165,-7.644 12.735,-6.046c4.738,0.654 8.654,-1.531 12.256,-4.759c1.998,11.696 6.587,49.154 8.914,67.145c3.492,27 9.77,25.365 17.845,64.388c0.023,0.111 16.087,43.453 13.086,102.906c-0.816,16.173 -6.897,14.882 -7.733,31.044c-1.598,30.893 4.174,31.589 -5.948,60.939c-0.915,2.654 -4.388,12.722 -5.404,34.581c-9.758,-2.936 -9.893,-8.436 -18.389,-2.962c-4.991,3.216 -5.302,0.966 -11.302,0" style="fill:#6ca6a3;"/></svg>