<svg
  xmlns="http://www.w3.org/2000/svg"
  viewBox="0 0 24 24"
  fill="white"
  aria-hidden="true"
>
  <path d="M12 .5C5.65.5.5 5.65.5 12c0 5.08 3.29 9.39 7.86 10.91.58.11.79-.25.79-.56 0-.28-.01-1.02-.02-2-3.2.7-3.88-1.54-3.88-1.54-.53-1.35-1.29-1.71-1.29-1.71-1.06-.73.08-.72.08-.72 1.17.08 1.79 1.2 1.79 1.2 1.04 1.78 2.72 1.27 3.38.97.1-.75.41-1.27.74-1.56-2.55-.29-5.23-1.28-5.23-5.69 0-1.26.45-2.29 1.19-3.09-.12-.29-.52-1.46.11-3.05 0 0 .97-.31 3.18 1.18a11.07 11.07 0 0 1 5.8 0c2.2-1.49 3.17-1.18 3.17-1.18.63 1.59.23 2.76.11 3.05.74.8 1.19 1.83 1.19 3.09 0 4.42-2.69 5.39-5.25 5.67.42.36.79 1.08.79 2.18 0 1.58-.01 2.85-.01 3.24 0 .31.21.68.8.56A11.52 11.52 0 0 0 23.5 12C23.5 5.65 18.35.5 12 .5z"/>
</svg>
