<?xml version="1.0" encoding="utf-8"?>
<!-- Generator: Adobe Illustrator 27.5.0, SVG Export Plug-In . SVG Version: 6.00 Build 0)  -->
<svg version="1.1" id="Capa_2" xmlns="http://www.w3.org/2000/svg" xmlns:xlink="http://www.w3.org/1999/xlink" x="0px" y="0px"
	 viewBox="0 0 2122 2122" style="enable-background:new 0 0 2122 2122;" xml:space="preserve">
<path style="fill:#666667;" d="M1607.592,956.02c-18.448-64.64-42.337-127.104-69.361-188.199
	c-16.125,31.219-37.682,59.536-64.207,82.837c-38.624,33.93-86.343,56.217-136.779,65.681
	c-58.163,10.914-118.519,5.109-175.056-11.463c-68.942-20.208-127.191-65.595-195.862-86.619
	c-18.397-5.633-37.421-10.533-56.605-12.363c-18.261-1.742-36.682-0.901-54.816,1.726c-37.179,5.387-72.854,17.716-109.224,26.684
	c-16.481,4.064-33.074,7.697-50.089,8.367c-15.2,0.598-30.471-0.894-45.283-4.352c-28.179-6.579-54.488-20.555-75.86-40.037
	c-21.292-19.408-37.377-44.338-46.028-71.832c-9.289-29.52-9.324-61.011-1.88-90.931c14.203-57.094,53.746-102.919,97.52-140.31
	c20.457-17.474,42.026-33.472,63.922-49.036C640.53,393.38,563.376,333.228,538.555,314.33v155.585c0,2.755-2.234,4.989-4.989,4.989
	s-4.989-2.234-4.989-4.989V304.323c0-1.883,1.06-3.608,2.743-4.456c1.676-0.845,3.693-0.674,5.213,0.444
	c1.013,0.75,102.132,75.773,159.552,139.951c0.033,0.037,0.064,0.075,0.096,0.113c10.68-7.523,21.415-14.974,32.114-22.474
	c-20.001-19.733-48.471-48.108-64.386-65.265c-41.559-44.804-112.655-106.089-153.307-90.55
	c-41.599,16.699-33.568,197.475-23.321,255.253c-167.6,178.169-278.517,441.416-256.746,691.756
	c5.565,63.989,18.378,127.841,39.376,188.136c9.089-30.333,21.788-59.685,36.537-87.275
	c34.207-63.99,80.962-122.213,136.316-169.152c24.894-21.111,51.836-40.154,80.98-54.954c28.069-14.254,58.033-27.565,90.152-27.437
	c23.392,0.094,45.146,8.866,61.936,25.152c18.438,17.886,29.895,42.105,38.207,66.058c4.968,14.32,8.858,28.997,12.075,43.803
	c3.8,17.49,7.218,34.939,13.474,51.773c8.345,22.453,21.348,43.875,42.61,56.068c17.471,10.019,37.809,12.677,57.51,14.761
	c8.921,0.944,17.863,1.838,26.749,3.039c-4.995-13.536-10.212-26.912-15.36-40.108c-12.056-30.911-24.524-62.872-33.681-95.659
	c-0.743-2.653,0.809-5.406,3.462-6.146c2.653-0.75,5.408,0.809,6.146,3.461c9.028,32.31,21.403,64.034,33.369,94.716
	c5.822,14.925,11.732,30.078,17.321,45.455c9.781,1.693,19.449,3.953,28.897,7.271c19.305,6.778,36.086,17.341,50.541,30.502
	c8.683-28.469,19.508-56.218,30.04-83.22c11.968-30.682,24.346-62.412,33.372-94.724c0.735-2.653,3.486-4.212,6.146-3.461
	c2.653,0.74,4.205,3.493,3.461,6.146c-9.157,32.789-21.627,64.755-33.683,95.666c-11.072,28.384-22.468,57.602-31.274,87.445
	c27.497,28.604,45.583,66.945,55.858,105.164c9.027,33.574,12.86,68.514,13.161,103.229c0.242,27.84-1.639,56.042-6.244,83.524
	c-6.179,36.866-17.317,73.629-32.69,108.086c4.547,15.326,10.025,30.367,16.374,44.951c42.781-2.058,85.257-6.938,126.755-14.706
	c6.366-21.653,16.119-47.614,27.388-77.612c41.589-110.704,104.436-278.002,104.436-502.689c0-2.755,2.234-4.989,4.989-4.989
	c2.755,0,4.989,2.234,4.989,4.989c0,226.499-63.23,394.818-105.072,506.197c-10.361,27.578-19.421,51.697-25.669,71.961
	c18.975-3.804,37.731-8.217,56.203-13.249c3.231-0.88,6.453-1.78,9.666-2.698c42.408-12.113,83.24-27.521,121.693-46.304
	c4.396-2.147,8.761-4.339,13.094-6.573c48.169-24.855,92.345-55.177,130.879-91.131c2.557-2.386,5.09-4.796,7.596-7.231
	c28.992-28.165,54.595-59.654,76.067-94.54c1.797-2.921,3.567-5.866,5.307-8.835c13.085-22.332,24.506-46.014,34.076-71.066
	C1663.875,1296.333,1653.728,1117.67,1607.592,956.02z"/>
<path style="fill:#888889;" d="M691.198,1773.636c-5.349-15.364-11.759-32.431-18.765-51.081
	c-41.841-111.379-105.072-279.698-105.072-506.197c0-2.755,2.234-4.989,4.989-4.989c2.755,0,4.989,2.234,4.989,4.989
	c0,224.687,62.848,391.985,104.433,502.689c8.043,21.41,15.313,40.762,21.132,57.961c44.004,12.355,89.609,21.537,135.939,27.456
	c12.164-29.488,20.799-60.702,25.419-92.26c0.397-2.726,2.928-4.621,5.659-4.212c2.726,0.397,4.612,2.931,4.212,5.659
	c-4.603,31.455-13.098,62.577-25.027,92.07c40.428,4.734,81.352,6.991,122.194,6.712c2.677-4.391,5.238-8.779,7.624-13.104
	c3.525-6.385,6.896-12.887,10.111-19.487c-7.055-21.583-12.303-43.803-15.58-66.191c-0.4-2.728,1.486-5.261,4.212-5.659
	c2.731-0.405,5.262,1.486,5.659,4.212c2.676,18.275,6.698,36.434,11.972,54.21c15.373-34.457,26.511-71.22,32.69-108.086
	c4.605-27.482,6.486-55.684,6.244-83.524c-0.301-34.715-4.135-69.655-13.161-103.229c-10.274-38.219-28.361-76.561-55.858-105.164
	c-1.393,4.721-2.724,9.457-3.975,14.209c-24.407,92.645-20.263,193.113,11.668,282.896c0.924,2.594-0.434,5.45-3.03,6.373
	c-0.553,0.195-1.116,0.29-1.671,0.29c-2.051,0-3.973-1.277-4.701-3.321c-32.597-91.654-36.829-194.212-11.912-288.782
	c1.723-6.543,3.587-13.049,5.56-19.518c-14.455-13.161-31.236-23.724-50.541-30.502c-9.447-3.317-19.116-5.577-28.897-7.271
	c6.822,18.767,13.165,37.866,18.281,57.29c24.918,94.57,20.687,197.128-11.912,288.782c-0.728,2.044-2.65,3.321-4.702,3.321
	c-0.555,0-1.118-0.095-1.671-0.29c-2.597-0.923-3.954-3.779-3.031-6.373c31.934-89.783,36.078-190.251,11.669-282.896
	c-5.487-20.826-12.442-41.366-19.892-61.553c-8.885-1.201-17.828-2.095-26.749-3.039c-19.702-2.083-40.039-4.742-57.51-14.761
	c-21.262-12.194-34.265-33.615-42.61-56.068c-6.256-16.833-9.674-34.283-13.474-51.773c-3.217-14.806-7.107-29.483-12.075-43.803
	c-8.312-23.952-19.768-48.172-38.207-66.058c-16.79-16.286-38.544-25.058-61.936-25.152c-32.119-0.128-62.083,13.183-90.152,27.437
	c-29.145,14.8-56.087,33.844-80.98,54.954c-55.353,46.938-102.109,105.162-136.316,169.152
	c-14.749,27.59-27.448,56.942-36.537,87.275c0.645,1.853,1.223,3.734,1.885,5.579c0.964,2.693,1.945,5.378,2.942,8.055
	c0.997,2.677,2.012,5.347,3.043,8.009c1.718,4.436,3.483,8.85,5.296,13.239c0.725,1.756,1.457,3.508,2.198,5.256
	c0.37,0.874,0.741,1.747,1.115,2.619c1.87,4.361,3.787,8.697,5.751,13.007c1.179,2.586,2.375,5.163,3.589,7.729
	c1.214,2.567,2.445,5.123,3.693,7.671c0.415,0.849,0.835,1.697,1.254,2.543c0.84,1.693,1.687,3.383,2.544,5.067
	c3.423,6.738,6.971,13.402,10.646,19.986c0.918,1.646,1.845,3.287,2.779,4.923c2.336,4.091,4.723,8.149,7.159,12.174
	c0.975,1.61,1.957,3.215,2.948,4.814c9.411,15.195,19.549,29.902,30.439,44.044c0.52,0.674,1.042,1.348,1.565,2.02
	c0.072,0.092,0.145,0.184,0.216,0.276c0.442,0.565,0.884,1.13,1.328,1.694c0.194,0.247,0.39,0.492,0.584,0.738
	c0.31,0.392,0.62,0.785,0.932,1.176c0.262,0.329,0.525,0.658,0.788,0.986c0.262,0.327,0.524,0.655,0.787,0.981
	c0.241,0.299,0.483,0.597,0.725,0.896c0.303,0.375,0.607,0.75,0.911,1.125c0.217,0.266,0.435,0.532,0.653,0.799
	c0.299,0.366,0.599,0.731,0.898,1.096c0.261,0.317,0.523,0.633,0.783,0.948c0.278,0.335,0.554,0.67,0.832,1.003
	c0.248,0.297,0.495,0.595,0.743,0.891c0.296,0.354,0.593,0.708,0.89,1.061c0.242,0.289,0.486,0.577,0.729,0.866
	c0.306,0.362,0.613,0.724,0.92,1.086c0.247,0.29,0.493,0.579,0.74,0.868c0.274,0.321,0.549,0.641,0.824,0.961
	c0.285,0.331,0.569,0.663,0.855,0.994c0.264,0.305,0.529,0.61,0.793,0.915c0.285,0.328,0.57,0.656,0.856,0.983
	c0.28,0.321,0.561,0.642,0.843,0.962c0.267,0.304,0.533,0.608,0.8,0.911c0.292,0.331,0.586,0.661,0.879,0.992
	c0.271,0.306,0.542,0.612,0.814,0.917c0.267,0.298,0.533,0.596,0.801,0.894c0.301,0.336,0.603,0.673,0.905,1.008
	c0.246,0.273,0.493,0.545,0.74,0.818c0.317,0.35,0.634,0.701,0.952,1.051c0.184,0.201,0.368,0.402,0.552,0.603
	c0.928,1.016,1.86,2.031,2.799,3.04c0.005,0.005,0.01,0.011,0.016,0.017c0.333,0.358,0.668,0.715,1.001,1.072
	c0.241,0.258,0.481,0.516,0.723,0.774c0.452,0.481,0.906,0.962,1.36,1.442c0.104,0.11,0.207,0.22,0.311,0.33
	c0.43,0.454,0.862,0.906,1.294,1.359c0.157,0.165,0.313,0.33,0.471,0.494c0.393,0.411,0.787,0.819,1.181,1.229
	c0.191,0.198,0.381,0.396,0.572,0.594c0.391,0.404,0.783,0.807,1.175,1.209c0.193,0.198,0.384,0.396,0.577,0.593
	c0.419,0.429,0.838,0.857,1.26,1.284c0.153,0.156,0.307,0.313,0.461,0.469c0.421,0.427,0.843,0.852,1.265,1.277
	c0.181,0.183,0.363,0.365,0.544,0.547c0.43,0.431,0.859,0.86,1.29,1.289c0.139,0.138,0.277,0.276,0.416,0.415
	c0.457,0.454,0.917,0.909,1.375,1.362c0.143,0.141,0.286,0.281,0.429,0.422c0.449,0.442,0.899,0.883,1.35,1.324
	c0.149,0.146,0.299,0.291,0.448,0.437c0.469,0.457,0.938,0.912,1.408,1.368c0.098,0.094,0.195,0.188,0.292,0.282
	c0.5,0.483,1.002,0.966,1.504,1.447c0.11,0.104,0.218,0.208,0.327,0.312c0.511,0.489,1.024,0.977,1.538,1.465
	c0.027,0.026,0.055,0.052,0.083,0.079C482.835,1689.082,581.745,1741.285,691.198,1773.636z"/>
<path style="fill:#888889;" d="M695.695,447.307c-2.056,1.841-5.211,1.664-7.045-0.39c-0.221-0.247-0.445-0.494-0.667-0.742
	c-21.896,15.564-43.466,31.562-63.922,49.036c-43.774,37.391-83.317,83.215-97.52,140.31c-7.444,29.919-7.409,61.411,1.88,90.931
	c8.651,27.494,24.736,52.424,46.028,71.832c21.372,19.482,47.682,33.458,75.86,40.037c14.812,3.458,30.083,4.951,45.283,4.352
	c17.015-0.67,33.608-4.303,50.089-8.367c36.37-8.968,72.045-21.297,109.224-26.684c18.134-2.628,36.555-3.468,54.816-1.726
	c19.184,1.83,38.208,6.73,56.605,12.363c68.671,21.024,126.919,66.411,195.862,86.619c56.537,16.572,116.893,22.376,175.056,11.463
	c50.436-9.464,98.156-31.751,136.779-65.681c26.525-23.302,48.083-51.619,64.207-82.837
	c-40.557-91.689-88.246-180.267-135.755-268.252c-32.914-60.958-65.83-121.915-98.745-182.873
	c-8.886-16.457-17.772-32.915-26.659-49.372c-0.912-1.689-1.857-3.396-2.835-5.107c-0.164-0.286-0.327-0.571-0.493-0.857
	c-0.23-0.4-0.464-0.8-0.698-1.2c-0.281-0.481-0.566-0.962-0.853-1.442c-0.236-0.395-0.473-0.79-0.712-1.184
	c-1.891-3.122-3.89-6.227-5.994-9.246c-0.135-0.194-0.269-0.386-0.405-0.579c-3.66-5.198-7.631-10.122-11.901-14.41
	c-0.161-0.162-0.323-0.323-0.484-0.483c-0.309-0.305-0.62-0.607-0.932-0.905c-0.177-0.17-0.356-0.338-0.534-0.505
	c-0.298-0.279-0.597-0.556-0.898-0.828c-0.03-0.028-0.061-0.055-0.092-0.083c-0.29-0.262-0.581-0.522-0.875-0.778
	c-5.547-4.853-11.553-8.546-17.985-10.375c-0.128-0.036-0.255-0.072-0.384-0.107c-4.922-1.339-10.094-1.585-15.503-0.42
	c-6.827,1.471-12.855,5.118-18.327,9.745c-0.625,0.528-1.243,1.07-1.854,1.622c-1.069,0.967-2.117,1.968-3.147,2.993
	c-0.147,0.146-0.293,0.293-0.44,0.441c-1.462,1.474-2.886,2.994-4.276,4.533c-0.139,0.154-0.277,0.308-0.416,0.462
	c-0.276,0.309-0.552,0.618-0.826,0.927c-0.549,0.619-1.092,1.24-1.63,1.86c-7.988,9.202-15.6,18.768-22.815,28.659
	c-1.202,1.648-2.394,3.306-3.574,4.972c-4.131,5.833-8.126,11.772-11.98,17.813c-1.101,1.726-2.191,3.46-3.269,5.202
	c-1.079,1.743-2.145,3.493-3.2,5.25c-1.055,1.758-2.098,3.524-3.13,5.297c-4.126,7.094-8.065,14.311-11.809,21.639
	c-13.572,26.564-24.589,54.587-32.759,83.521c-87.254-22.043-179.508-21.561-266.551,1.394c-2.283,0.602-4.793,1.31-7.47,2.097
	c-0.223,0.066-0.447,0.132-0.673,0.199c-14.647,4.338-34.001,10.97-48.062,15.917c-0.216,0.076-0.431,0.152-0.646,0.227
	c-0.641,0.226-1.27,0.449-1.888,0.667c-0.206,0.073-0.41,0.145-0.613,0.216c-0.406,0.143-0.806,0.285-1.2,0.425
	c-0.197,0.07-0.393,0.139-0.587,0.208c-2.909,1.032-5.471,1.948-7.562,2.699c-0.976,0.351-1.85,0.666-2.608,0.94
	c-0.217,0.078-0.424,0.153-0.622,0.224c-1.779,0.644-2.775,1.007-2.775,1.007s-0.006-0.006-0.016-0.015
	c-0.007-0.007-0.017-0.017-0.03-0.03c-0.009-0.008-0.018-0.017-0.029-0.028c-0.021-0.021-0.047-0.046-0.077-0.076
	c-0.156-0.152-0.43-0.419-0.814-0.794c-0.249-0.243-0.545-0.532-0.885-0.863c-0.145-0.142-0.298-0.291-0.459-0.449
	c-0.104-0.101-0.212-0.206-0.322-0.314c-0.101-0.099-0.205-0.201-0.312-0.304c-0.497-0.486-1.05-1.027-1.659-1.622
	c-0.002-0.002-0.003-0.002-0.003-0.004c-4.008-3.919-10.347-10.133-17.886-17.571l0,0c-10.699,7.5-21.434,14.951-32.114,22.474
	C697.913,442.43,697.711,445.503,695.695,447.307z"/>
<path style="fill:#15162B;" d="M602.56,1820.759c-6.809,11.571-15.398,24.417-27.484,31.968
	c-10.003,6.253-24.904,8.982-35.666,1.004c-12.516-9.282-14.589-28.015-16.594-46.129l-0.633-5.613
	c-2.565-21.759-14.107-52.485-28.721-91.384c-4.04-10.754-8.321-22.153-12.734-34.196c-4.805-3.262-9.546-6.581-14.227-9.956
	c6.134,17.084,12.102,32.972,17.621,47.663c14.375,38.263,25.727,68.487,28.151,89.043l0.626,5.539
	c2.136,19.298,4.555,41.174,20.568,53.047c6.163,4.57,13.827,6.848,21.861,6.848c8.373,0,17.145-2.473,25.035-7.403
	c13.912-8.694,23.376-22.757,30.796-35.369c12.557-21.34,22.748-44.49,30.249-68.526c-3.135-1.138-6.257-2.293-9.369-3.466
	C624.751,1777.312,614.819,1799.927,602.56,1820.759z"/>
<path style="fill:#15162B;" d="M1316.427,1801.99l-0.634,5.613c-2.005,18.114-4.078,36.847-16.594,46.129
	c-10.763,7.973-25.667,5.245-35.667-1.004c-12.083-7.549-20.675-20.397-27.483-31.968c-7.889-13.406-14.813-27.552-20.691-42.191
	c-3.213,0.918-6.435,1.818-9.666,2.698c6.15,15.468,13.434,30.409,21.758,44.555c7.423,12.612,16.887,26.68,30.797,35.369
	c7.893,4.931,16.662,7.403,25.035,7.403c8.032,0,15.698-2.278,21.861-6.848c16.012-11.873,18.431-33.749,20.567-53.047l0.626-5.539
	c2.174-18.436,11.531-44.652,23.809-77.468c-4.333,2.235-8.698,4.426-13.094,6.573
	C1326.404,1761.061,1318.496,1784.442,1316.427,1801.99z"/>
<path style="fill:#15162B;" d="M1811.469,1069.949c-41.647-17.026-71.432-4.857-89.091,8.351
	c-36.541,27.325-51.725,80.251-47.837,118.412l14.131,138.745c3.62,35.542,7.364,72.297-0.709,107.471
	c-8.701,37.927-32.266,68.409-61.498,79.549c-17.187,6.552-36.97,6.859-56.47,1.477c-1.74,2.969-3.509,5.914-5.307,8.835
	c22.385,6.721,45.377,6.62,65.329-0.987c32.794-12.499,58.092-44.889,67.671-86.643c8.441-36.779,4.611-74.365,0.909-110.716
	l-9.962-97.804c0.624-0.168,1.226-0.457,1.767-0.878c8.692-6.773,15.125-16.244,21.347-25.406
	c8.258-12.158,16.058-23.642,27.946-27.226c16.312-4.933,31.135,7.182,46.838,19.993c13.764,11.232,27.997,22.848,45.057,24.862
	c13.417,1.573,27.023-4.283,37.303-16.103c4.532-5.212,7.982-11.146,10.241-17.368c24.258,114.158,1.061,288.355-73.113,370.023
	c-80.601,88.739-219.273,114.998-317.401,62.791c-2.506,2.435-5.039,4.845-7.596,7.231c35.914,19.79,77.235,29.325,119.378,29.323
	c77.744,0,158.314-32.419,213.006-92.636c77.226-85.026,100.865-266.86,74.495-383.342
	C1873.752,1125.399,1847.32,1084.609,1811.469,1069.949z M1861.365,1205.335c-7.959,9.152-18.644,13.939-28.604,12.74
	c-14.173-1.673-27.262-12.353-39.92-22.682c-17.028-13.895-34.65-28.273-56.024-21.818c-15.276,4.606-24.451,18.112-33.32,31.174
	c-4.937,7.269-10.019,14.746-16.032,20.391l-2.999-29.443c-3.6-35.367,10.317-84.305,43.888-109.408
	c22.365-16.726,49.805-19.184,79.34-7.103c27.396,11.201,49.583,41.335,63.738,85.939c-0.44,0.996-0.56,2.143-0.262,3.279
	C1874.36,1180.558,1870.604,1194.709,1861.365,1205.335z"/>
<path style="fill:#666667;" d="M989.035,1779.842c-3.215,6.6-6.586,13.102-10.111,19.487c-2.386,4.323-4.945,8.709-7.621,13.098
	c9.91-0.068,19.815-0.24,29.706-0.607C996.576,1801.36,992.577,1790.681,989.035,1779.842z"/>
<path style="fill:#15162B;" d="M874.133,1713.651c0.4-2.728-1.486-5.261-4.212-5.659c-2.73-0.41-5.261,1.486-5.659,4.212
	c-4.62,31.559-13.255,62.772-25.419,92.26c-0.005,0.011-0.01,0.022-0.015,0.034c-6.799,16.475-14.699,32.412-23.619,47.569
	c-8.275,14.061-18.723,29.681-33.488,38.909c-12.358,7.722-30.811,11.07-44.177,1.164c-15.459-11.464-17.983-34.285-20.427-56.356
	l-0.762-6.758c-1.671-14.178-6.532-31.565-13.441-51.99c-0.004-0.01-0.007-0.019-0.01-0.029
	c-5.818-17.199-13.089-36.551-21.132-57.961c-41.586-110.704-104.433-278.002-104.433-502.689c0-2.755-2.234-4.989-4.989-4.989
	c-2.755,0-4.989,2.234-4.989,4.989c0,226.499,63.23,394.818,105.072,506.197c7.006,18.65,13.417,35.717,18.765,51.081
	c0.003,0.009,0.007,0.019,0.01,0.028c7.902,22.699,13.485,41.677,15.237,56.533l0.755,6.687c2.553,23.07,5.445,49.216,24.399,63.272
	c7.701,5.71,16.59,8.066,25.428,8.063c10.836,0,21.593-3.54,29.981-8.78c16.594-10.37,27.915-27.208,36.802-42.309
	c9.614-16.339,18.075-33.56,25.282-51.375c0.005-0.011,0.01-0.023,0.015-0.034C861.035,1776.228,869.53,1745.106,874.133,1713.651z"
	/>
<path style="fill:#15162B;" d="M979.794,706.622c-2.735-0.258-5.194,1.696-5.488,4.436c-0.721,6.811-4.787,10.122-8.068,11.698
	c-5.527,2.65-12.597,2.287-17.595-0.916c-4.799-3.077-6.387-6.884-6.851-14.496c0.204-4.026,0.117-8.528,0.018-13.601
	c-0.019-1.013-0.039-2.057-0.058-3.134c0.119-0.069,0.237-0.139,0.353-0.208c2.887-1.719,5.706-3.503,8.449-5.348
	c4.712-3.167,9.307-6.62,11.907-10.939c2.601-4.319,2.861-9.699-0.815-13.557c-0.5-0.524-1.057-1.007-1.662-1.453
	c-3.059-2.253-7.334-3.543-11.561-4.329c-7.485-1.393-15.386-1.526-22.946-0.385c-5.15,0.777-10.31,2.219-14.016,5.003
	c-13.881,10.428,7.671,25.569,20.251,31.019c-0.008,1.596-0.023,3.132-0.039,4.605c-0.046,4.452-0.088,8.561,0.129,12.337
	c-0.429,7.763-2.073,11.305-7.031,14.484c-5.213,3.338-13.228,3.447-19.057,0.261c-3.001-1.642-6.582-4.802-6.582-10.517
	c0-2.755-2.234-4.989-4.989-4.989c-2.755,0-4.989,2.234-4.989,4.989c0,8.156,4.293,15.179,11.774,19.269
	c4.299,2.353,9.296,3.52,14.239,3.52c5.381,0,10.701-1.386,14.989-4.134c2.82-1.808,4.978-3.775,6.623-5.95
	c1.614,2.202,3.723,4.183,6.48,5.95c4.409,2.828,9.686,4.263,14.992,4.263c4.224,0,8.468-0.909,12.305-2.753
	c7.878-3.781,12.734-10.755,13.676-19.639C984.52,709.37,982.535,706.914,979.794,706.622z"/>
<path style="fill:#15162B;" d="M810.606,607.657c0.853,2.621,3.666,4.051,6.287,3.203c29.349-9.544,63.14-4.263,88.178,13.788
	c0.884,0.639,1.902,0.943,2.913,0.943c1.55,0,3.077-0.718,4.051-2.07c1.613-2.237,1.106-5.355-1.128-6.965
	c-27.574-19.878-64.782-25.69-97.098-15.187C811.188,602.222,809.756,605.039,810.606,607.657z"/>
<path style="fill:#15162B;" d="M970.435,616.556c-2.234,1.61-2.74,4.728-1.128,6.965c0.975,1.352,2.502,2.07,4.052,2.07
	c1.011,0,2.029-0.307,2.913-0.943c25.035-18.051,58.824-23.335,88.178-13.788c2.631,0.848,5.435-0.585,6.287-3.203
	c0.85-2.619-0.582-5.435-3.203-6.288C1035.217,590.863,998.006,596.676,970.435,616.556z"/>
<path style="fill:#15162B;" d="M1015.96,662.909c0.604,2.219,2.616,3.681,4.811,3.681l1.313-0.178
	c55.79-15.194,115.4-19.537,172.399-12.54c2.699,0.319,5.223-1.608,5.559-4.346c0.334-2.733-1.61-5.223-4.346-5.559
	c-58.248-7.142-119.198-2.709-176.234,12.819C1016.805,657.509,1015.236,660.252,1015.96,662.909z"/>
<path style="fill:#15162B;" d="M1181.996,686.089c-50.105-15.364-107.742-20.711-162.319-15.077
	c-2.741,0.283-4.731,2.736-4.448,5.476c0.283,2.74,2.743,4.738,5.477,4.448c53.254-5.508,109.508-0.29,158.368,14.692
	c0.487,0.149,0.979,0.222,1.464,0.222c2.134-0.003,4.109-1.381,4.768-3.53C1186.113,689.687,1184.632,686.897,1181.996,686.089z"/>
<path style="fill:#15162B;" d="M1169.256,737.711c-44.319-22.451-95.725-39.605-148.658-49.61c-2.712-0.524-5.318,1.269-5.827,3.976
	c-0.511,2.707,1.267,5.315,3.976,5.827c52.02,9.834,102.507,26.677,146.003,48.708c0.721,0.366,1.491,0.538,2.248,0.538
	c1.823,0,3.576-0.998,4.456-2.736C1172.698,741.957,1171.714,738.956,1169.256,737.711z"/>
<path style="fill:#15162B;" d="M677.712,643.967c-2.736,0.339-4.68,2.828-4.343,5.562c0.336,2.738,2.862,4.662,5.561,4.343
	c56.758-6.992,116.127-2.653,171.69,12.54l1.318,0.178c2.193,0,4.205-1.459,4.809-3.676c0.728-2.658-0.838-5.401-3.496-6.127
	C796.447,641.253,735.738,636.829,677.712,643.967z"/>
<path style="fill:#15162B;" d="M852.001,680.936c2.724,0.312,5.194-1.708,5.477-4.448c0.285-2.74-1.708-5.192-4.448-5.476
	c-54.346-5.632-111.768-0.285-161.681,15.079c-2.634,0.809-4.11,3.603-3.299,6.236c0.661,2.144,2.634,3.522,4.765,3.522
	c0.487,0,0.982-0.073,1.471-0.224C742.939,680.646,798.949,675.431,852.001,680.936z"/>
<path style="fill:#15162B;" d="M852.784,688.101c-52.724,10.008-103.924,27.162-148.068,49.615
	c-2.458,1.247-3.435,4.251-2.185,6.707c0.88,1.732,2.631,2.728,4.451,2.728c0.76,0,1.532-0.173,2.255-0.543
	c43.318-22.03,93.598-38.87,145.408-48.704c2.707-0.514,4.485-3.126,3.971-5.832C858.104,689.367,855.514,687.577,852.784,688.101z"
	/>
<path style="fill:#15162B;" d="M695.695,447.307c2.016-1.804,2.219-4.877,0.486-6.932c-0.032-0.038-0.063-0.076-0.096-0.113
	c-57.42-64.178-158.538-139.201-159.552-139.951c-1.52-1.118-3.537-1.289-5.213-0.444c-1.683,0.848-2.743,2.573-2.743,4.456v165.593
	c0,2.755,2.234,4.989,4.989,4.989s4.989-2.234,4.989-4.989V314.33c24.821,18.898,101.975,79.05,149.428,131.844
	c0.222,0.248,0.446,0.495,0.667,0.742C690.484,448.971,693.639,449.148,695.695,447.307z"/>
<path style="fill:#15162B;" d="M1150.04,404.099c2.572,1.001,5.464-0.273,6.46-2.835c28.913-74.161,55.483-117.605,65.498-132.758
	l107.573,172.916c0.945,1.52,2.575,2.353,4.241,2.353c0.899,0,1.81-0.244,2.631-0.753c2.339-1.457,3.055-4.531,1.6-6.872
	l-111.6-179.391c-0.872-1.401-2.38-2.28-4.027-2.348c-1.695-0.034-3.225,0.682-4.209,2.005
	c-1.367,1.834-33.885,46.012-71.003,141.223C1146.203,400.206,1147.473,403.097,1150.04,404.099z"/>
<path style="fill:#15162B;" d="M940.742,875.026c-1.779-2.11-4.928-2.368-7.031-0.594c-48.27,40.765-76.716,105.303-74.239,168.433
	c0.105,2.687,2.317,4.794,4.982,4.794l0.198-0.005c2.755-0.107,4.899-2.427,4.79-5.179c-2.358-60.127,24.736-121.596,70.706-160.419
	C942.255,880.278,942.518,877.131,940.742,875.026z"/>
<path style="fill:#15162B;" d="M959.604,938.415c1.028-2.555-0.209-5.462-2.765-6.492c-2.563-1.038-5.466,0.212-6.492,2.765
	c-20.572,51.099-19.366,111.598,3.23,161.834c0.833,1.849,2.651,2.945,4.553,2.945c0.685,0,1.379-0.144,2.044-0.441
	c2.514-1.13,3.635-4.085,2.504-6.597C941.173,1044.619,940.023,987.043,959.604,938.415z"/>
<path style="fill:#15162B;" d="M874.681,1663.517c-0.923,2.594,0.434,5.45,3.031,6.373c0.553,0.195,1.115,0.29,1.671,0.29
	c2.052,0,3.973-1.277,4.702-3.321c32.599-91.654,36.831-194.212,11.912-288.782c-5.116-19.424-11.459-38.523-18.281-57.29
	c-5.59-15.377-11.499-30.53-17.321-45.455c-11.966-30.682-24.341-62.407-33.369-94.716c-0.738-2.653-3.493-4.212-6.146-3.461
	c-2.653,0.74-4.205,3.493-3.462,6.146c9.157,32.787,21.625,64.748,33.681,95.659c5.148,13.196,10.365,26.573,15.36,40.108
	c7.45,20.187,14.405,40.727,19.892,61.553C910.759,1473.266,906.615,1573.734,874.681,1663.517z"/>
<path style="fill:#15162B;" d="M1280.23,1216.358c0-2.755-2.234-4.989-4.989-4.989c-2.755,0-4.989,2.234-4.989,4.989
	c0,224.687-62.847,391.985-104.436,502.689c-11.269,29.998-21.022,55.959-27.388,77.612c-3.578,12.165-6.086,22.971-7.194,32.368
	l-0.762,6.758c-2.444,22.071-4.968,44.892-20.427,56.356c-13.364,9.915-31.817,6.558-44.175-1.164
	c-14.767-9.228-25.216-24.848-33.491-38.909c-7.675-13.041-14.593-26.66-20.706-40.703c-6.348-14.584-11.827-29.624-16.374-44.951
	c-5.274-17.776-9.297-35.935-11.972-54.21c-0.397-2.726-2.928-4.616-5.659-4.212c-2.726,0.397-4.611,2.931-4.212,5.659
	c3.276,22.388,8.525,44.607,15.58,66.191c3.542,10.84,7.541,21.518,11.974,31.978c6.638,15.662,14.251,30.832,22.77,45.31
	c8.887,15.101,20.21,31.939,36.804,42.309c8.387,5.24,19.14,8.782,29.978,8.782c8.836,0,17.728-2.358,25.428-8.066
	c18.955-14.056,21.847-40.202,24.399-63.272l0.755-6.687c1.185-10.049,4.123-21.985,8.346-35.681
	c6.248-20.263,15.308-44.382,25.669-71.961C1217,1611.176,1280.23,1442.857,1280.23,1216.358z"/>
<path style="fill:#15162B;" d="M963.505,1666.859c0.728,2.044,2.65,3.321,4.701,3.321c0.556,0,1.119-0.095,1.671-0.29
	c2.597-0.923,3.954-3.779,3.03-6.373c-31.932-89.783-36.075-190.251-11.668-282.896c1.252-4.752,2.582-9.488,3.975-14.209
	c8.807-29.842,20.202-59.061,31.274-87.445c12.056-30.911,24.526-62.877,33.683-95.666c0.743-2.653-0.809-5.406-3.461-6.146
	c-2.66-0.75-5.411,0.809-6.146,3.461c-9.026,32.312-21.403,64.042-33.372,94.724c-10.532,27.002-21.357,54.751-30.04,83.22
	c-1.973,6.469-3.837,12.975-5.56,19.518C926.676,1472.648,930.908,1575.205,963.505,1666.859z"/>
</svg>
