<?xml version="1.0" encoding="utf-8"?>
<!-- Generator: Adobe Illustrator 27.5.0, SVG Export Plug-In . SVG Version: 6.00 Build 0)  -->
<svg version="1.1" id="Capa_1" xmlns="http://www.w3.org/2000/svg" xmlns:xlink="http://www.w3.org/1999/xlink" x="0px" y="0px"
	 viewBox="0 0 2122 2122" style="enable-background:new 0 0 2122 2122;" xml:space="preserve">
<g>
	<path style="fill:#C4C8CB;" d="M1525.443,735.528c-104.668-76.793-261.792-97.122-388.642-96.131
		c-86.629,0.677-175.78,19.419-263.19,46.925c-10.817-19.62-20.708-40.167-29.107-64.533c-4.283-12.426-20.563-43.577-26.54-61.296
		c-8.027-23.797-23.605-51.104-47.411-37.923c-22.308,12.352-34.048,24.091-69.264,49.916c-3.215,2.358-40.783-32.771-166.698-7.042
		c-34.893,7.13-46.95-70.435-87.842-48.454c-17.687,9.507-29.017,26.915-37.635,45.049c-31.744,57.813-55.392,122.269-84.859,181.92
		c-24.056,48.696-48.775,102.466-36.301,155.328c7.246,30.705,26.497,57.274,48.283,80.093c3.856,4.039,7.835,7.942,11.869,11.783
		c-12.035,21.035-21.054,43.425-26.343,67.221c23.716-32.659,56.983-57.283,87.322-83.356c3.426-2.944,8.433,2.023,4.986,4.986
		c-17.249,14.823-35.064,28.992-51.775,44.435c-15.123,13.975-29.702,29.01-40.762,46.479c-1.03,1.625-1.99,3.285-2.934,4.953
		c-4.097,29.171-2.651,60.355,5.628,93.663c25.317,101.865,140.845,154.691,244.717,187.569
		c36.318,11.495,75.361,21.897,116.341,30.892c-10.56-31.24,15.653-60.157,39.724-76.264c29.396-19.671,64.523-30.011,99.833-30.096
		c4.545-0.01,4.537,7.041,0,7.051c-32.011,0.076-63.644,8.872-90.921,25.697c-23.527,14.512-52.596,41.801-41.614,72.523
		c0.364,1.019,0.234,1.885-0.161,2.578c4.044,0.867,8.109,1.718,12.189,2.557c-5.046-10.642-1.54-25.131,8.979-31.226
		c3.937-2.281,7.484,3.815,3.559,6.089c-9.025,5.228-10.525,19.45-2.916,26.545l0.453,0.636c5.007,0.994,10.037,1.968,15.093,2.918
		c-5.245-11.543-2.541-26.236,7.125-34.665c1.439-1.255,3.562-1.424,4.986,0c1.281,1.282,1.435,3.734,0,4.986
		c-8.008,6.984-10.215,19.222-4.989,28.397c0.537,0.944,0.576,1.857,0.329,2.659c1.453,0.266,2.897,0.542,4.354,0.804
		c0.572-1.978,2.76-3.627,5.146-2.379c13.499,7.064,31.556,0.204,37.673-13.504c0.78-1.748,3.32-2.145,4.824-1.265
		c1.769,1.034,2.041,3.086,1.265,4.823c-3.705,8.303-10.917,14.292-19.24,17.358c149.137,23.849,315.36,28.132,467.758-0.882
		c-5.871-16.835,4.591-32.607,17.453-44.259c14.919-13.516,32.811-23.197,51.665-30.027c8.537-3.093,17.276-5.606,26.111-7.697
		c4.583-1.085,9.192-2.054,13.818-2.932c4.25-0.806,9.125-1.21,12.961-3.386c9.861-5.594,6.368-19.054,1.305-26.585
		c-5.35-7.956-12.772-14.602-18.963-21.906c-23.213-27.394-41.607-58.611-54.764-92.001c-13.163-33.405-20.894-68.95-22.783-104.807
		c-0.962-18.26-0.36-36.607,1.864-54.758c1.981-16.172,4.89-33.201,17.053-45.06c3.253-3.171,8.24,1.813,4.986,4.986
		c-14.436,14.074-15.32,38.06-16.589,56.96c-1.314,19.571-0.777,39.26,1.51,58.739c4.19,35.68,14.432,70.79,29.979,103.171
		c7.626,15.884,16.526,31.16,26.63,45.597c10.445,14.922,23.214,27.535,34.403,41.775c8.193,10.428,13.745,27.69,1.867,37.886
		c-6.111,5.245-14.987,5.616-22.528,7.163c-8.57,1.759-17.077,3.862-25.435,6.452c-17.268,5.351-34.005,12.88-48.602,23.651
		c-13.937,10.285-32.427,27.077-24.949,45.689c6.905-1.365,13.787-2.785,20.63-4.29c0.661-6.156,3.819-12.035,8.982-15.583
		c1.577-1.084,3.915-0.288,4.824,1.265c1.011,1.729,0.302,3.746-1.265,4.823l-0.513,0.37l-0.365,0.309l-1.07,1.047l-0.549,0.622
		l-0.074,0.084c-0.325,0.44-0.628,0.897-0.908,1.366l-0.711,1.318l-0.183,0.378l-0.182,0.469c-0.22,0.596-0.357,1.218-0.516,1.833
		c8.671-1.979,17.293-4.061,25.85-6.272c0.9-2.244,2.127-4.359,3.73-6.187c1.26-1.438,3.706-1.28,4.985,0
		c1.026,1.025,1.205,2.438,0.752,3.684c88.987-24.029,171.168-60.981,239.695-113.934c50.313-38.878,83.761-90.213,101.71-146.52
		c0.156-2.417,0.351-4.827,0.416-7.26c0.05-1.893,1.314-2.949,2.754-3.262c5.191-18.427,8.766-37.324,10.76-56.445
		c0.342-3.283,0.642-6.572,0.892-9.867C1674.282,932.302,1624.245,808.018,1525.443,735.528z"/>
	<path style="fill:#332F28;" d="M1822.138,1141.067c-22.106-51.588-62.463-97.27-113.309-121.871
		c-11.838-5.727-24.207-10.249-36.97-13.423c-4.403-1.095-6.282,5.704-1.874,6.8c54.839,13.637,100.74,52.978,129.817,100.592
		c14.702,24.074,25.369,50.681,30.384,78.482c5.211,28.881,3.295,58.834-2.921,87.405c-13.042,59.947-45.923,114.406-88.441,158.109
		c-45.435,46.702-102.349,80.768-161.941,106.258c-30.812,13.18-62.56,24.125-94.662,33.698
		c-33.828,10.087-68.184,19.457-103.19,24.395c-34.97,4.933-72.894,5.703-106.725-5.836c-13.089-4.464-26.836-11.802-34.066-24.097
		c-6.609-11.24-5.872-24.708,1.033-35.578c14.464-22.767,44.188-32.266,68.624-39.349c34.296-9.941,68.745-19.376,102.793-30.149
		c62.523-19.78,124.374-44.444,177.563-83.507c46.697-34.296,87.193-79.734,106.898-134.944
		c18.68-52.339,18.622-113.086-6.382-163.369c-6.146-12.36-13.859-23.802-22.821-34.289l-0.58-0.451
		c-0.25,3.295-0.549,6.583-0.892,9.867c36.414,45.903,44.236,108.909,30.353,164.878c-15.068,60.753-56.275,111.435-105.42,148.702
		c-54.98,41.69-119.662,67.266-185.033,87.71c-34.825,10.892-70.046,20.437-105.057,30.703
		c-23.883,7.003-50.788,18.018-65.324,39.406c-14.626,21.523-5.691,47.016,14.756,60.845c12.382,8.374,27.077,12.695,41.599,15.537
		c17.9,3.503,36.214,4.669,54.427,4.036c36.658-1.273,72.734-9.298,108.025-18.83c32.7-8.832,65.108-18.866,96.795-30.861
		c62.291-23.578,122.499-55.004,172.684-99.288c46.235-40.799,83.722-92.939,103.455-151.635
		c9.667-28.756,15.064-59.372,14.459-89.759C1839.646,1193.638,1832.991,1166.395,1822.138,1141.067z"/>
	<path style="fill:#C4C8CB;" d="M631.482,842.648l0.027,0.126c0,6.75,0,13.5,0,20.25c0,2.505-2.047,4.359-4.468,4.467
		c-2.412,0.108-4.468-2.13-4.468-4.467c0-4.67,0-9.339,0-14.008l-1.048,0.763c-2.492,1.739-5.179,3.203-7.977,4.404
		c0.529,4.706,1.655,9.531,3.579,13.524c0.982,2.04,2.044,3.776,3.569,5.259c1.554,1.51,2.814,1.976,4.714,2.52l0.362,0.085
		l0.541,0.048c0.471,0.03,0.941,0.041,1.413,0.029l1.061-0.052l0.349-0.061l0.938-0.201c2.073-0.506,3.188-1.021,5.086-2.319
		c0.451-0.309,1.185-0.944,1.869-1.655c0.804-0.835,0.93-0.99,1.602-2.08c1.203-1.952,1.867-3.821,2.33-6.113
		c0.816-4.039,0.229-8.415-1.049-12.503C636.69,848.456,633.823,845.747,631.482,842.648z"/>
	<path style="fill:#332F28;" d="M545.03,795.642c9.686,0,17.538-12.811,17.538-28.614c0-15.803-7.852-28.614-17.538-28.614
		c-9.686,0-17.537,12.811-17.537,28.614C527.493,782.831,535.344,795.642,545.03,795.642z"/>
	<path style="fill:#332F28;" d="M713.02,795.642c9.686,0,17.537-12.811,17.537-28.614c0-15.803-7.851-28.614-17.537-28.614
		c-9.686,0-17.538,12.811-17.538,28.614C695.482,782.831,703.334,795.642,713.02,795.642z"/>
	<path style="fill:#332F28;" d="M566.918,910.88c-37.165,5.348-71.988,22.803-98.993,48.799c-3.275,3.153,1.714,8.135,4.985,4.985
		c24.684-23.76,56.066-39.972,89.829-46.01c25.619-4.582,61.466-2.741,73.735,24.638c1.852,4.134,7.93,0.552,6.089-3.559
		C629.947,911.581,594.028,906.979,566.918,910.88z"/>
	<path style="fill:#332F28;" d="M603.085,939.071c-1.847,0.462-2.958,2.533-2.462,4.337c0.516,1.877,2.484,2.926,4.337,2.463
		c2.384-0.596,4.757-0.559,7.251,0.113c0.745,0.201,1.471,0.452,2.191,0.726l0.187,0.064l0.188,0.105l0.893,0.443
		c0.688,0.361,1.357,0.758,2.004,1.189l0.821,0.573l0.082,0.057l0.387,0.318c1.11,0.929,2.122,1.962,3.04,3.081l-0.039-0.06
		l0.391,0.537l0.554,0.825c0.384,0.603,0.737,1.225,1.056,1.865l0.327,0.691l0.277,0.735c0.234,0.671,0.43,1.355,0.584,2.049
		l0.178,0.939l0.06,0.562c0.058,0.776,0.056,1.552,0.014,2.329c-0.101,1.903,1.693,3.526,3.526,3.526
		c1.994,0,3.424-1.616,3.526-3.526C633.256,948.052,617.467,935.476,603.085,939.071z"/>
	<path style="fill:#332F28;" d="M587.422,956.344c-1.902,0.101-3.526,1.549-3.526,3.526c0,1.831,1.615,3.626,3.526,3.526
		c10.53-0.558,20.674,6.768,23.291,17.049c1.119,4.394,7.922,2.532,6.8-1.874C614.165,965.418,601.006,955.625,587.422,956.344z"/>
	<path style="fill:#332F28;" d="M604.371,987.969c-4.792,14.466-22.568,22.061-36.482,16.458c-1.767-0.712-3.874,0.775-4.338,2.462
		c-0.553,2.013,0.69,3.623,2.463,4.337c17.612,7.093,39.261-3.586,45.155-21.382C612.6,985.526,605.793,983.674,604.371,987.969z"/>
	<path style="fill:#332F28;" d="M692.309,1386.917c-10.983-30.722,18.087-58.011,41.614-72.523
		c27.277-16.825,58.91-25.621,90.921-25.697c4.537-0.01,4.545-7.062,0-7.051c-35.31,0.084-70.437,10.425-99.833,30.096
		c-24.07,16.108-50.284,45.024-39.724,76.264l0.224,0.786c1.156,3.234,5.369,2.926,6.638,0.703
		C692.543,1388.802,692.673,1387.935,692.309,1386.917z"/>
	<path style="fill:#332F28;" d="M716.874,1366.915c3.925-2.274,0.379-8.37-3.559-6.089c-10.519,6.095-14.025,20.584-8.979,31.226
		c1.121,2.364,2.652,4.544,4.636,6.393c3.102,2.892,7.585-1.26,5.439-4.349l-0.453-0.636
		C706.349,1386.364,707.85,1372.143,716.874,1366.915z"/>
	<path style="fill:#332F28;" d="M736.627,1395.732c-5.226-9.176-3.019-21.414,4.989-28.397c1.435-1.252,1.281-3.704,0-4.986
		c-1.424-1.424-3.547-1.255-4.986,0c-9.666,8.429-12.37,23.122-7.125,34.665c0.346,0.76,0.618,1.548,1.033,2.277
		c1.71,3.002,5.627,1.654,6.417-0.901C737.203,1397.589,737.164,1396.676,736.627,1395.732z"/>
	<path style="fill:#332F28;" d="M790.218,1386.87c0.775-1.738,0.503-3.789-1.265-4.823c-1.504-0.88-4.044-0.483-4.824,1.265
		c-6.118,13.708-24.174,20.568-37.673,13.504c-2.386-1.248-4.574,0.402-5.146,2.379c-0.392,1.353-0.048,2.853,1.587,3.709
		c8.659,4.532,19.028,4.661,28.081,1.325C779.3,1401.162,786.512,1395.173,790.218,1386.87z"/>
	<path style="fill:#332F28;" d="M544.372,1024.451c-64.973,49.741-27.335,144.435-59.56,209.303
		c-9.454,19.03-23.415,35.56-40.586,48.068c-3.632,2.645-0.117,8.766,3.559,6.088c29.736-21.661,49.323-53.561,55.824-89.72
		c6.991-38.886,1.695-79.267,12.756-117.517c5.585-19.314,15.353-37.721,31.566-50.134
		C551.485,1027.818,547.977,1021.691,544.372,1024.451z"/>
	<path style="fill:#332F28;" d="M362.296,1024.449c16.711-15.443,34.527-29.611,51.775-44.435c3.447-2.962-1.559-7.93-4.986-4.986
		c-30.339,26.073-63.606,50.697-87.322,83.356c-1.429,1.968-2.949,3.859-4.305,5.888c-21.606,32.332-28.848,74.813-27.09,113.115
		c0.99,21.567,5.21,43.452,15.797,62.473c2.207,3.965,8.3,0.414,6.088-3.559c-18.741-33.674-18.008-77.299-10.299-114.012
		c3.396-16.171,8.496-32.024,16.644-46.408c0.944-1.668,1.904-3.328,2.934-4.953
		C332.594,1053.459,347.174,1038.424,362.296,1024.449z"/>
	<path style="fill:#332F28;" d="M1270.675,1356.308c14.596-10.771,31.333-18.3,48.602-23.651c8.358-2.59,16.865-4.693,25.435-6.452
		c7.542-1.548,16.417-1.918,22.528-7.163c11.878-10.196,6.326-27.459-1.867-37.886c-11.189-14.24-23.958-26.853-34.403-41.775
		c-10.104-14.437-19.004-29.713-26.63-45.597c-15.546-32.38-25.789-67.49-29.979-103.171c-2.287-19.479-2.824-39.168-1.51-58.739
		c1.269-18.899,2.153-42.886,16.589-56.96c3.254-3.172-1.733-8.157-4.986-4.986c-12.164,11.859-15.072,28.889-17.053,45.06
		c-2.224,18.15-2.827,36.498-1.864,54.758c1.89,35.857,9.621,71.402,22.783,104.807c13.157,33.39,31.551,64.607,54.764,92.001
		c6.191,7.304,13.614,13.95,18.963,21.906c5.063,7.531,8.557,20.991-1.305,26.585c-3.836,2.176-8.711,2.58-12.961,3.386
		c-4.626,0.878-9.235,1.847-13.818,2.932c-8.834,2.091-17.574,4.604-26.111,7.697c-18.854,6.83-36.746,16.512-51.665,30.027
		c-12.861,11.652-23.324,27.424-17.453,44.259c0.609,1.744,1.335,3.495,2.31,5.259c2.198,3.971,8.289,0.419,6.089-3.559
		c-0.566-1.023-1.001-2.038-1.408-3.05C1238.248,1383.385,1256.737,1366.593,1270.675,1356.308z"/>
	<path style="fill:#332F28;" d="M1650.963,1119.519c-0.065,2.433-0.26,4.843-0.416,7.26c-3.897,60.417-36.029,115.891-75.04,160.794
		c-36.324,41.812-79.058,75.929-130.91,96.359c-37.56,14.8-77.692,23.807-118.024,25.896l-0.347,0.089l-0.802,0.206l-0.36,0.107
		l-0.27,0.08c-0.971,0.464-3.299,1.069-4.327,1.144c-0.871,0.063-1.747,0.061-2.619-0.002c-0.773-0.056-0.981-0.082-2.027-0.33
		c-3.215-0.762-5.886-2.26-8.016-4.941c-3.825-4.814-3.536-12.943,0.585-17.645c0.341-0.39,0.582-0.836,0.752-1.302
		c0.453-1.247,0.274-2.659-0.752-3.684c-1.279-1.28-3.725-1.438-4.985,0c-1.603,1.828-2.83,3.943-3.73,6.187
		c-1.928,4.807-2.207,10.268-0.401,15.204c0.214,0.585,0.49,1.135,0.754,1.693c-0.716,0.291-1.372,0.773-1.86,1.448l-0.104,0.142
		l-0.39,0.458l-0.928,0.955l-1.003,0.87c0.469-0.365-0.641,0.418-0.775,0.502l-1.151,0.664l-0.934,0.462
		c-0.315,0.135-1.695,0.591-2.433,0.773l-1.315,0.276l-0.257,0.042l-0.471,0.049c-0.893,0.078-1.792,0.096-2.687,0.052l-1.158-0.097
		l-0.893-0.159c-0.927-0.195-1.823-0.475-2.714-0.796l-0.062-0.02l-0.015-0.007l-0.6-0.284l-1.161-0.641l-0.971-0.639l-0.083-0.057
		l-0.754-0.661l-0.941-0.964l-0.424-0.497l-0.065-0.097c-0.499-0.742-0.923-1.501-1.347-2.287l-0.084-0.157l-0.205-0.529
		l-0.408-1.266l-0.313-1.296l-0.121-0.657l-0.028-0.139l-0.001-0.085c-0.074-0.895-0.121-1.784-0.089-2.682l0.075-1.174l0.009-0.141
		l0.159-0.917l0.301-1.069c0.16-0.616,0.296-1.237,0.516-1.833l0.182-0.469l0.183-0.378l0.711-1.318
		c0.28-0.47,0.583-0.926,0.908-1.366l0.074-0.084l0.549-0.622l1.07-1.047l0.365-0.309l0.513-0.37
		c1.567-1.077,2.276-3.095,1.265-4.823c-0.908-1.553-3.247-2.348-4.824-1.265c-5.163,3.549-8.32,9.427-8.982,15.583
		c-0.352,3.276-0.032,6.628,1.146,9.756c1.722,4.575,4.922,8.495,9.366,10.662c4.429,2.159,9.311,2.699,14.143,1.856
		c5.137-0.896,9.637-3.744,12.801-7.836c3.108,3.214,7.226,5.412,11.795,6.089c4.021,0.596,7.906,0.129,11.621-1.4
		c66.76-3.568,136.745-24.495,190.465-65.13c44.872-33.942,84.318-78.195,110.82-127.921
		c17.165-32.207,28.538-67.593,29.502-104.265c0.068-2.645-2.288-3.7-4.297-3.262
		C1652.277,1116.57,1651.013,1117.626,1650.963,1119.519z"/>
	<path style="fill:#332F28;" d="M1041.253,1245.12c1.64,20.389,3.152,42.738-7.144,61.285
		c-7.859,14.156-21.402,23.761-36.255,29.573c-33.549,13.13-69.626,8.4-104.682,11.583c-20.224,1.837-40.185,6.444-57.27,17.859
		c-3.754,2.509-0.228,8.619,3.559,6.089c34.359-22.957,76.983-16.113,115.932-19.343c30.925-2.564,66.283-11.748,83.532-40.026
		c12.248-20.079,11.193-44.471,9.379-67.021C1047.942,1240.628,1040.887,1240.589,1041.253,1245.12z"/>
	<path style="fill:#332F28;" d="M750.135,581.176c5.504-8.297,19.304-25.141,30.78-17.1c2.839,1.989,4.542,5.166,5.99,8.228
		c1.828,3.862,3.429,7.84,5.12,11.763c3.638,8.441,7.276,16.881,10.914,25.321c1.792,4.156,7.868,0.569,6.089-3.559
		c-4.245-9.847-8.489-19.694-12.734-29.541c-3.301-7.66-6.415-16.288-14.677-19.822c-15.289-6.541-30.087,9.872-37.57,21.151
		C741.531,581.41,747.635,584.945,750.135,581.176z"/>
	<path style="fill:#332F28;" d="M418.908,626.446c2.466-11.891,6.903-23.197,13.32-33.517c3.117-5.013,6.653-9.739,10.61-14.12
		c3.77-4.175,8.065-9.115,13.245-11.536c8.443-3.946,13.892,4.677,18.321,10.46c4.459,5.822,9.737,11.94,17.771,11.501
		c4.513-0.246,4.541-7.299,0-7.051c-7.801,0.426-12.449-9.414-16.762-14.552c-6.291-7.494-14.798-11.104-23.961-5.866
		c-5.205,2.975-9.612,7.643-13.599,12.058c-4.348,4.816-8.286,10.039-11.712,15.548c-6.71,10.789-11.452,22.768-14.032,35.202
		C411.189,629,417.985,630.893,418.908,626.446z"/>
	<path style="fill:#332F28;" d="M736.449,819.412c37.633-12.71,75.267-25.419,112.9-38.129c4.276-1.444,2.441-8.256-1.875-6.799
		c-37.633,12.71-75.266,25.419-112.899,38.128C730.298,814.057,732.133,820.869,736.449,819.412z"/>
	<path style="fill:#332F28;" d="M735.331,836.963c45.177,0.056,90.252-3.202,134.966-9.635c4.474-0.644,2.571-7.439-1.874-6.8
		c-44.079,6.343-88.56,9.439-133.091,9.383C730.794,829.906,730.788,836.957,735.331,836.963z"/>
	<path style="fill:#332F28;" d="M739.522,852.228c-4.434-0.847-6.333,5.948-1.874,6.799c31.878,6.085,63.756,12.17,95.634,18.255
		c4.434,0.846,6.334-5.948,1.874-6.799C803.278,864.398,771.401,858.312,739.522,852.228z"/>
	<path style="fill:#332F28;" d="M536.056,820.409c-44.467-10.407-88.326-23.215-131.404-38.375c-4.289-1.509-6.134,5.3-1.875,6.799
		c43.079,15.16,86.938,27.969,131.405,38.376C538.595,828.241,540.48,821.444,536.056,820.409z"/>
	<path style="fill:#332F28;" d="M534.674,844.334c4.46-0.497,4.511-7.554,0-7.051c-42.2,4.707-84.739,4.784-126.956,0.23
		c-4.506-0.486-4.472,6.569,0,7.051C449.935,849.118,492.474,849.041,534.674,844.334z"/>
	<path style="fill:#332F28;" d="M516.285,862.494c-34.68,7.271-69.699,12.738-104.949,16.344c-4.47,0.457-4.518,7.513,0,7.051
		c35.875-3.67,71.529-9.196,106.824-16.596C522.599,868.363,520.72,861.565,516.285,862.494z"/>
	<path style="fill:#332F28;" d="M884.918,947.218c13.834-16.385,20.21-36.757,24.294-57.468c0.874-4.432-5.921-6.33-6.799-1.875
		c-3.63,18.409-8.865,36.931-20.56,51.974c-9.598,12.345-22.543,21.466-36.547,28.19c-29.638,14.231-63.16,18.43-95.255,23.669
		c-23.766,3.88-47.531,7.76-71.297,11.64c-4.467,0.729-2.572,7.525,1.875,6.799c40.22-6.566,81.034-11.647,120.836-20.468
		C831.94,982.927,864.149,971.817,884.918,947.218z"/>
	<path style="fill:#332F28;" d="M406.777,1300.956c-24.958,3.86-51.273-3.098-71.061-18.791c-3.52-2.79-8.542,2.166-4.986,4.986
		c21.974,17.427,50.204,24.892,77.921,20.604C413.122,1307.064,411.223,1300.268,406.777,1300.956z"/>
	<path style="fill:#332F28;" d="M569.762,607.712c1.747,0,3.731-1.62,3.525-3.526c-1.389-12.89-2.779-25.779-4.168-38.668
		c-0.204-1.893-1.475-3.526-3.526-3.526c-1.748,0-3.731,1.62-3.526,3.526c1.39,12.89,2.779,25.779,4.169,38.668
		C566.44,606.079,567.71,607.712,569.762,607.712z"/>
	<path style="fill:#332F28;" d="M601.168,642.893c-0.349,4.526,6.704,4.503,7.051,0c2.11-27.363,0.931-54.799-3.342-81.903
		c-0.705-4.47-7.5-2.572-6.799,1.874C602.249,589.324,603.227,616.189,601.168,642.893z"/>
	<path style="fill:#332F28;" d="M650.817,597.138c0-10.565,0-21.13,0-31.695c0-4.537-7.052-4.544-7.052,0c0,10.565,0,21.13,0,31.695
		C643.765,601.675,650.817,601.682,650.817,597.138z"/>
	<path style="fill:#332F28;" d="M660.119,846.927c-1.568,0.322-4.064,0.443-5.792,0.221c-1.364-0.175-4.491-1.103-5.515-1.575
		c-4.147-1.912-7.021-4.254-9.92-7.832c-2.371-2.928-4.264-6.781-5.145-10.817c-0.4-1.829-0.546-3.426-0.387-5.807
		c0.015-0.24,0.067-0.573,0.131-0.937c0.047-0.271,0.101-0.555,0.165-0.859c2.573-1.473,5.033-3.83,7.721-6.72
		c2.523-2.714,8.855-9.962,7.312-14.883c-0.759-2.419-2.724-2.599-4.848-2.728c-2.793-0.169-5.59-0.273-8.388-0.309
		c-1.052-0.013-2.104-0.018-3.156-0.013c-3.69,0.017-8.812,0.539-12.491,0.852c-3.125,0.266-6.477,0.021-9.361,1.455
		c-3.602,1.791-3.706,5.443-2.03,9.198c2.103,4.712,8.384,10.097,12.909,12.643v0c0.279,2.11,0.534,4.224,0.879,6.326
		c0.201,1.225,0.411,2.449,0.605,3.675l0.196,1.292l0.085,0.669c0.1,0.906,0.174,1.818,0.173,2.73l-0.047,1.241l0.017,0.073
		l-0.066,0.202l-0.304,1.116l0.008,0.086l-0.129,0.195l-0.627,1.058l-0.374,0.527l0.169-0.244c-3.303,3.634-7.67,6.559-12.413,8.49
		l-0.73-0.151c-1.238,0-2.425,0.599-3.275,1.503c-4.437,1.196-9.041,1.509-13.36,0.546c-2.353-0.524-4.834,0.713-5.496,3.121
		c-0.616,2.242,0.755,4.969,3.121,5.495c5.017,1.118,10.161,1.041,15.149,0.071c1.473,10.921,5.779,23.046,16.549,26.814
		c5.346,1.871,11.44,0.812,16.345-1.789c5.334-2.83,9.056-7.734,10.987-13.388c1.432-4.194,1.661-8.735,1.157-13.181
		c4.104,1.032,8.389,1.104,12.551,0.249c2.364-0.486,3.729-3.28,3.12-5.496C664.94,847.59,662.49,846.439,660.119,846.927z
		 M640.962,863.165c-0.464,2.292-1.128,4.161-2.33,6.113c-0.672,1.09-0.797,1.245-1.602,2.08c-0.684,0.711-1.418,1.346-1.869,1.655
		c-1.898,1.298-3.013,1.813-5.086,2.319l-0.938,0.201l-0.349,0.061l-1.061,0.052c-0.472,0.012-0.942,0-1.413-0.029l-0.541-0.048
		l-0.362-0.085c-1.9-0.544-3.161-1.01-4.714-2.52c-1.525-1.483-2.587-3.219-3.569-5.259c-1.923-3.993-3.05-8.818-3.579-13.524
		c2.798-1.201,5.485-2.665,7.977-4.404l1.048-0.763c0,4.669,0,9.339,0,14.008c0,2.337,2.055,4.575,4.468,4.467
		c2.421-0.108,4.468-1.963,4.468-4.467c0-6.75,0-13.5,0-20.25l-0.027-0.126c2.341,3.098,5.208,5.807,8.431,8.014
		C641.191,854.75,641.778,859.127,640.962,863.165z"/>
</g>
</svg>
